<?xml version="1.0" encoding="utf-8"?>
<!-- Generator: Adobe Illustrator 27.5.0, SVG Export Plug-In . SVG Version: 6.00 Build 0)  -->
<svg version="1.1" xmlns="http://www.w3.org/2000/svg" xmlns:xlink="http://www.w3.org/1999/xlink" x="0px" y="0px"
	 viewBox="0 0 750 500" style="enable-background:new 0 0 750 500;" xml:space="preserve">
<g id="BACKGROUND">
	<rect style="fill:#FFFFFF;" width="750" height="500"/>
</g>
<g id="OBJECT">
	<g>
		<path style="fill:#D1F4F5;" d="M143.318,454.621C90.172,421.064,49.066,362.633,37.788,300.8s7.589-129.281,52.137-173.621
			c44.548-44.34,114.346-62.778,173.888-42.645c34.725,11.742,64.909,35.226,100.42,44.318
			c48.707,12.471,99.476-3.693,148.435-15.134c48.959-11.441,104.884-16.896,145.49,12.753
			c25.739,18.793,40.916,49.053,49.192,79.83c23.544,87.55-5.647,187.253-72.656,248.321H143.318z"/>
		<g>
			<g>
				<path style="fill:#D4CFBE;" d="M535.256,435.485H195.381V239.128c0-8.108,6.573-14.681,14.681-14.681h310.513
					c8.108,0,14.681,6.573,14.681,14.681V435.485z"/>
				<path style="fill:#402C49;" d="M200.275,435.485V239.128c0-5.397,4.39-9.787,9.787-9.787h310.513
					c5.396,0,9.787,4.391,9.787,9.787v196.357H200.275z"/>
				
					<rect x="276.927" y="182.05" transform="matrix(-1.836970e-16 1 -1 -1.836970e-16 697.731 -32.9057)" style="fill:#5DABFF;" width="176.783" height="300.725"/>
				<path style="fill:#D4CFBE;" d="M530.409,454.621H200.227c-8.509,0-16.815-2.6-23.806-7.452l0,0h377.794h0
					C547.225,452.021,538.919,454.621,530.409,454.621z"/>
				<rect x="176.422" y="435.485" style="fill:#EFEFEF;" width="377.794" height="11.627"/>
				<path style="fill:#D4CFBE;" d="M394.087,441.299H336.55c-3.211,0-5.814-2.603-5.814-5.814l0,0H399.9l0,0
					C399.9,438.696,397.298,441.299,394.087,441.299z"/>
				<g>
					<path style="fill:#6BC5FF;" d="M492.273,371.177c-8.845-12.581-23.832-22.679-24.504-38.044
						c-0.674-15.418,14.053-28.974,11.527-44.198c-1.217-7.335-6.528-13.613-13.117-17.058c-6.589-3.445-14.308-4.288-21.704-3.528
						c-16.197,1.664-30.628,10.455-44.999,18.109c-14.371,7.653-30.382,14.528-46.451,11.903
						c-11.104-1.814-20.927-7.978-31.261-12.429c-10.334-4.451-22.582-7.13-32.58-1.97c-17.763,9.168-17.248,35.725-31.457,49.785
						c-6.27,6.205-14.97,9.466-21.311,15.598c-10.588,10.236-12.664,26.965-8.762,41.166c3.046,11.088,9.153,20.97,15.999,30.294
						H497.69C503.97,404.706,502.263,385.387,492.273,371.177z"/>
					<path style="fill:#6BC5FF;" d="M260.396,286.651c4.809-5.051,12.174-8.769,13.165-15.673c0.88-6.132-4.43-11.936-10.492-13.214
						c-6.061-1.277-12.378,1.054-17.504,4.533c-13.08,8.879-22.727,29.129-16.31,44.719
						C239.893,332.858,254.451,292.897,260.396,286.651z"/>
					<path style="fill:#6BC5FF;" d="M303.965,272.169c10.092-4.284,8.068-19.939-3.082-20.49
						c-7.854-0.389-15.675,7.096-11.759,15.024C291.709,271.936,298.601,274.446,303.965,272.169z"/>
					<path style="fill:#6BC5FF;" d="M479.887,334.896c0.397,4.031,1.71,8.18,4.711,10.9c3.001,2.72,7.987,3.494,11.101,0.904
						c2.492-2.072,3.184-5.552,3.719-8.749c1.133-6.763,9.034-30.821-4.201-30.267C483.484,308.176,478.981,325.703,479.887,334.896
						z"/>
				</g>
			</g>
			<g>
				<g>
					<g>
						<path style="fill:#8C404C;" d="M423.12,310.759l-3.414-6.398c-3.47-6.503-6.232-13.361-8.239-20.453l-1.852-6.546
							c-4.937-17.451-20.866-29.499-39.002-29.499h-5.296h-5.295c-18.136,0-34.065,12.048-39.002,29.499l-1.852,6.546
							c-2.007,7.093-4.769,13.95-8.239,20.453l-3.414,6.398c-9.429,17.672,0.46,39.48,19.966,44.031l37.836,8.827l37.836-8.827
							C422.661,350.239,432.55,328.431,423.12,310.759z"/>
						<path style="fill:#472948;" d="M406.157,322.209l-2.412-5.012c-2.452-5.095-4.403-10.466-5.821-16.023l-1.308-5.128
							c-3.488-13.671-14.742-23.109-27.556-23.109h-3.741h-3.741c-12.814,0-24.068,9.438-27.556,23.109l-1.308,5.128
							c-1.418,5.556-3.369,10.928-5.821,16.023l-2.412,5.012c-6.662,13.844,0.325,30.928,14.107,34.493l26.732,6.915l26.732-6.915
							C405.832,353.137,412.819,336.053,406.157,322.209z"/>
						<g>
							<path style="fill:#A64F5A;" d="M320.995,345.414c-2.501-2.354-4.207-5.845-4.728-9.722
								c-0.572-3.875,0.164-8.017,1.558-12.014c1.39-4.008,3.389-7.884,5.154-11.675c1.775-3.778,3.242-7.528,3.864-10.9
								c-1.647,3.002-3.761,6.217-6.005,9.73c-2.224,3.509-4.564,7.406-6.086,11.779c-1.529,4.323-2.108,9.271-0.871,13.584
								C315.013,340.495,317.864,343.988,320.995,345.414z"/>
						</g>
						<g>
							<path style="fill:#A64F5A;" d="M409.427,345.414c2.501-2.354,4.207-5.845,4.728-9.722c0.572-3.875-0.164-8.017-1.557-12.014
								c-1.39-4.008-3.389-7.884-5.154-11.675c-1.775-3.778-3.242-7.528-3.864-10.9c1.647,3.002,3.761,6.217,6.005,9.73
								c2.224,3.509,4.564,7.406,6.086,11.779c1.529,4.323,2.108,9.271,0.871,13.584
								C415.409,340.495,412.558,343.988,409.427,345.414z"/>
						</g>
					</g>
					<g>
						<g>
							<g>
								<path style="fill:#F0BF9C;" d="M410.946,375.938l-21.827-5.894l0,0l-3.216-0.868c-2.989-0.807-5.065-3.518-5.065-6.614
									v-13.42c-0.45,0.795-0.914,1.574-1.391,2.335c-3.769,6.012-8.843,9.381-14.129,9.381c-5.285,0-10.359-3.369-14.128-9.381
									c-0.477-0.761-0.941-1.54-1.391-2.335v13.42c0,3.096-2.076,5.807-5.065,6.614l-3.223,0.87l0,0l-21.82,5.892
									c-2.422,0.654-4.727,1.575-6.901,2.707c9.627,15.295,27.335,24.819,46.612,24.819h5.913h5.913
									c19.278,0,36.988-9.525,46.614-24.822C415.669,377.511,413.366,376.591,410.946,375.938z"/>
								<path style="fill:#422C4F;" d="M365.318,360.858c5.286,0,10.359-3.369,14.129-9.381c0.477-0.761,0.94-1.54,1.391-2.335
									v-20.74h-31.039v20.74c0.45,0.795,0.914,1.574,1.391,2.335C354.959,357.489,360.033,360.858,365.318,360.858z"/>
							</g>
							<path style="fill:#CC6164;" d="M435.1,399.949c-2.57-9.297-8.895-16.954-17.258-21.307
								c-9.626,15.297-27.336,24.822-46.614,24.822h-5.913h-5.913c-19.277,0-36.986-9.524-46.612-24.819
								c-8.361,4.353-14.683,12.009-17.252,21.304l-5.764,20.855h151.091L435.1,399.949z"/>
							<g>
								<path style="fill:#A34262;" d="M362.467,413.306c9.519,0.284,19.045-1.26,27.473-4.127
									c8.449-2.844,15.768-6.997,21.41-11.355c-6.259,3.423-13.779,6.713-22.141,8.948c-8.346,2.254-17.506,3.451-26.642,3.182
									c-9.135-0.278-18.207-2.022-26.403-4.772c-8.213-2.732-15.523-6.466-21.565-10.259c5.371,4.688,12.428,9.271,20.692,12.617
									C343.531,410.906,352.948,413.019,362.467,413.306z"/>
								<path style="fill:#A34262;" d="M308.012,396.661c2.085,4.748,4.896,10.753,7.374,16.901c0.99,2.426,1.925,4.87,2.808,7.241
									h2.133c-0.675-2.699-1.554-5.47-2.656-8.168C315.131,406.328,311.478,400.513,308.012,396.661z"/>
								<path style="fill:#A34262;" d="M318.629,405.807c2.226,4.553,5.836,9.969,10.108,14.996h3.497
									c-0.09-0.101-0.179-0.202-0.268-0.303C327.219,415.164,322.514,409.788,318.629,405.807z"/>
								<path style="fill:#A34262;" d="M409.485,420.13c2.442-2.835,4.708-6.146,6.568-9.675c1.855-3.532,3.299-7.275,4.253-10.894
									c0.959-3.618,1.426-7.105,1.489-10.124c-1.979,5.709-4.69,12.903-8.284,19.679c-2.167,4.153-4.648,8.117-7.069,11.687h2.447
									C409.088,420.581,409.288,420.36,409.485,420.13z"/>
								<path style="fill:#A34262;" d="M407.99,407.753c-3.386,3.704-7.727,8.4-12.501,12.643c-0.153,0.138-0.31,0.271-0.464,0.407
									h3.516C402.792,416.681,406.149,411.865,407.99,407.753z"/>
							</g>
						</g>
						<polygon style="fill:none;stroke:#222221;stroke-width:1.1787;stroke-miterlimit:10;" points="341.353,369.659 
							341.353,369.659 341.353,369.659 						"/>
						
							<rect x="341.353" y="369.659" style="fill:none;stroke:#222221;stroke-width:1.1787;stroke-miterlimit:10;" width="0" height="0"/>
						<polygon style="fill:none;stroke:#222221;stroke-width:1.1787;stroke-miterlimit:10;" points="389.284,369.659 
							389.284,369.659 389.284,369.659 						"/>
						
							<rect x="389.284" y="369.659" style="fill:none;stroke:#222221;stroke-width:1.1787;stroke-miterlimit:10;" width="0" height="0"/>
					</g>
					<g>
						<g>
							<path style="fill:#F0BF9C;" d="M365.211,260.136c-18.932,0-34.28,15.348-34.28,34.28v14.069
								c0,13.997,5.621,27.408,15.603,37.221c4.983,4.899,11.69,7.644,18.677,7.644c6.987,0,13.695-2.745,18.677-7.644
								c9.981-9.813,15.603-23.224,15.603-37.221v-14.069C399.491,275.484,384.143,260.136,365.211,260.136z"/>
							<path style="fill:#EBA588;" d="M370.234,322.94c-3.246-0.769-6.691-0.678-9.891,0.26c0.848,1.793,2.813,2.956,4.797,3
								C367.123,326.244,369.308,324.695,370.234,322.94z"/>
							<path style="fill:#FFFFFF;" d="M375.202,330.774c-6.482,1.438-13.273,1.465-19.767,0.078c0.63,4.484,5.223,8.236,9.744,8.481
								C369.701,339.577,374.092,335.164,375.202,330.774z"/>
							<path style="fill:#EBA588;" d="M369.274,340.838c-2.718,0.147-5.435,0.295-8.153,0.442c0.94,1.159,2.649,1.978,4.141,1.969
								C366.755,343.239,368.35,342.009,369.274,340.838z"/>
							<g>
								<path style="fill:#422C4F;" d="M355.57,314.839c0.053-1.074-0.345-2.375-1.228-3.472c-0.869-1.098-2.221-1.986-3.756-2.293
									c-1.535-0.309-3.124-0.01-4.35,0.668c-1.237,0.671-2.106,1.719-2.472,2.729c1.868-1.049,4.226-1.607,6.376-1.177
									C352.29,311.727,354.251,313.151,355.57,314.839z"/>
							</g>
							<g>
								<path style="fill:#422C4F;" d="M373.866,314.788c0.033-1.141,0.563-2.487,1.59-3.575c1.012-1.091,2.518-1.92,4.169-2.117
									c1.652-0.199,3.311,0.249,4.552,1.07c1.255,0.814,2.088,1.996,2.391,3.097c-1.892-1.267-4.343-2.054-6.657-1.778
									C377.599,311.764,375.404,313.109,373.866,314.788z"/>
							</g>
						</g>
						<g>
							<path style="fill:#8C404C;" d="M401.494,285.503c-1.067-14.654-12.538-26.407-27.162-27.83h0
								c-6.014-0.585-12.071-0.585-18.086,0l0,0c-14.624,1.423-26.095,13.176-27.162,27.83l-1.219,16.746h37.425h37.424
								L401.494,285.503z"/>
							<path style="fill:#A64F5A;" d="M390.176,285.503c-0.42-8.386-3.188-15.81-7.358-20.904
								c2.382,5.237,3.915,11.833,4.201,19.079l0.732,18.571h3.263L390.176,285.503z"/>
							<path style="fill:#A64F5A;" d="M347.759,264.599c-4.17,5.094-6.938,12.518-7.358,20.904l-0.838,16.746h3.263l0.732-18.571
								C343.844,276.432,345.377,269.836,347.759,264.599z"/>
							<polygon style="fill:#A64F5A;" points="368.589,302.249 370.234,279.742 373.398,302.249 							"/>
						</g>
					</g>
				</g>
				<g>
					<path style="fill:#F0BF9C;" d="M459.869,360.691l4.684-7.54c1.949,0.91,4.271,0.204,5.383-1.637l3.56-5.892
						c1.141-1.888,0.631-4.337-1.169-5.612l-15.314-10.85l5.145-19.1c0.316-1.174-0.013-2.428-0.866-3.295
						c-1.712-1.74-4.642-1.184-5.597,1.063l-9.649,22.703l-12.338,10.64l8.911,19.551l-14.21,60.081h21.485L459.869,360.691z"/>
					<path style="fill:#EBA588;" d="M461.468,340.47h-14.28l0,0c3.481,4.423,4.855,10.147,3.764,15.668l-0.222,1.125l0.523-0.668
						c2.168-2.767,5.959-3.674,9.145-2.186l2.615,1.221l1.54-2.479l-11.881-7.654L461.468,340.47z"/>
				</g>
				<g>
					<path style="fill:#F0BF9C;" d="M270.553,360.691l-4.684-7.54c-1.949,0.91-4.271,0.204-5.383-1.637l-3.56-5.892
						c-1.141-1.888-0.631-4.337,1.169-5.612l15.314-10.85l-5.145-19.1c-0.316-1.174,0.013-2.428,0.866-3.295
						c1.712-1.74,4.642-1.184,5.597,1.063l9.649,22.703l12.338,10.64l-8.911,19.551l14.209,60.081h-21.485L270.553,360.691z"/>
					<path style="fill:#EBA588;" d="M268.954,340.47h14.28l0,0c-3.48,4.423-4.855,10.147-3.764,15.668l0.222,1.125l-0.523-0.668
						c-2.168-2.767-5.959-3.674-9.145-2.186l-2.615,1.221l-1.54-2.479l11.881-7.654L268.954,340.47z"/>
				</g>
			</g>
		</g>
		<path style="fill:#D4CFBE;" d="M448.234,203.67V78.425c0-5.449,4.417-9.866,9.865-9.866h181.564c5.449,0,9.865,4.417,9.865,9.866
			V203.67c0,5.449-4.417,9.865-9.865,9.865H458.1C452.651,213.536,448.234,209.119,448.234,203.67z"/>
		<path style="fill:#402C49;" d="M452.18,78.424c0-3.264,2.656-5.919,5.92-5.919h181.564c3.264,0,5.919,2.655,5.919,5.919V203.67
			c0,3.264-2.655,5.919-5.919,5.919H458.1c-3.264,0-5.92-2.655-5.92-5.919V78.424z"/>
		
			<rect x="461.059" y="81.384" transform="matrix(-1 -1.224647e-16 1.224647e-16 -1 1097.7632 282.0945)" style="fill:#F5D896;" width="175.646" height="119.326"/>
		<rect x="63.884" y="454.621" style="fill:#0099D3;" width="602.869" height="14.159"/>
		<g>
			<path style="fill:#A59B95;" d="M231.06,341.599H91.107c-5.523,0-10-4.477-10-10v-184.04c0-5.523,4.477-10,10-10H231.06
				c5.523,0,10,4.477,10,10v184.04C241.06,337.122,236.583,341.599,231.06,341.599z"/>
			<path style="fill:#402C49;" d="M91.107,337.6c-3.309,0-6-2.692-6-6v-184.04c0-3.309,2.691-6,6-6H231.06c3.309,0,6,2.691,6,6
				v184.04c0,3.309-2.691,6-6,6H91.107z"/>
			
				<rect x="72.063" y="172.603" transform="matrix(-1.836970e-16 1 -1 -1.836970e-16 400.6632 78.4959)" style="fill:#9787F7;" width="178.04" height="133.953"/>
			<g>
				<defs>
					
						<rect id="SVGID_1_" x="72.063" y="172.603" transform="matrix(-1.836970e-16 1 -1 -1.836970e-16 400.6632 78.4959)" width="178.04" height="133.953"/>
				</defs>
				<clipPath id="SVGID_00000132064383123677806160000005830206152406350222_">
					<use xlink:href="#SVGID_1_"  style="overflow:visible;"/>
				</clipPath>
				<g style="clip-path:url(#SVGID_00000132064383123677806160000005830206152406350222_);">
					<path style="fill:#B99AFF;" d="M94.057,199.325c5.544,2.043,11.398,4.178,17.22,3.171c7.497-1.297,13.149-7.501,17.241-13.915
						c4.092-6.414,7.363-13.536,12.96-18.689c5.598-5.153,14.579-7.76,20.836-3.431c5.502,3.806,6.853,11.246,7.49,17.906
						c0.637,6.66,1.332,14.014,6.207,18.595c4.119,3.871,10.223,4.709,15.874,4.579c5.65-0.13,11.375-1.026,16.906,0.139
						c5.531,1.165,11.019,5.109,11.722,10.717c0.975,7.779-7.144,13.636-9.176,21.208c-1.669,6.217,1.021,12.824,4.762,18.063
						c3.74,5.239,8.549,9.676,12.014,15.101c6.754,10.575,7.735,23.705,8.525,36.228c0.756,11.975,0.872,25.666-7.895,33.86
						c-7.872,7.358-19.895,7.361-30.662,6.924c-22.99-0.933-45.981-1.865-68.971-2.798c-15.411-0.625-31.79-1.567-44.362-10.501
						c-10.836-7.701-17.231-20.443-19.957-33.454c-2.726-13.011-2.177-26.456-1.615-39.738c0.719-16.999,0.706-34.034,1.252-50.985
						C64.953,196.033,81.61,194.346,94.057,199.325z"/>
					<path style="fill:#B99AFF;" d="M98.103,168.925c-2.142,3.348-2.389,8.163,0.325,11.067c2.196,2.35,5.79,2.94,8.941,2.3
						c3.152-0.64,5.978-2.323,8.736-3.977c2.212-1.327,4.446-2.672,6.281-4.485c1.834-1.813,3.257-4.169,3.448-6.741
						c0.292-3.941-2.567-7.756-6.305-9.036c-3.988-1.366-8.597-0.035-11.875,2.417C104.432,162.881,100.283,165.518,98.103,168.925z
						"/>
					<path style="fill:#B99AFF;" d="M183.335,177.508c-0.698,2.98-0.027,6.332,2.053,8.577c2.917,3.149,7.682,3.53,11.971,3.702
						c4.988,0.201,9.976,0.402,14.964,0.603c3.077,0.124,6.57,0.087,8.672-2.164c2.672-2.863,1.47-7.596-0.737-10.831
						c-3.252-4.767-8.365-8.226-13.999-9.473C198.435,166.191,185.482,168.344,183.335,177.508z"/>
					<g>
						<g>
							<g>
								<polygon style="fill:#F2C9AD;" points="233.248,344.37 225.822,324.679 208.589,335.494 215.778,353.351 								"/>
								<path style="fill:#E4E4E0;" d="M148.923,280.594c2.785,1.498,6.162,2.41,9.582,2.395c3.42-0.015,6.789-0.956,9.561-2.478
									c2.786-1.513,4.961-3.598,6.355-5.662c-1.976,1.525-4.376,2.996-7.109,4.049c-2.725,1.059-5.768,1.701-8.817,1.717
									c-3.049,0.01-6.098-0.605-8.832-1.641c-2.742-1.03-5.155-2.48-7.144-3.987C143.932,277.04,146.124,279.105,148.923,280.594z
									"/>
								<path style="fill:#E4E4E0;" d="M167.772,324.638c6.3-4.568,11.897-10.085,16.295-15.893
									c4.415-5.802,7.614-11.876,9.587-17.369c-3.602,4.608-7.832,9.686-12.739,14.642c-4.895,4.963-10.453,9.802-16.4,14.118
									c-5.959,4.299-12.293,8.065-18.538,11.163c-6.242,3.111-12.389,5.541-17.892,7.522c5.835-0.156,12.605-1.295,19.496-3.675
									C154.473,332.785,161.464,329.194,167.772,324.638z"/>
								<path style="fill:#7BC1BA;" d="M156.273,349c5.193-0.869,10.278-2.358,14.827-4.279c4.554-1.914,8.564-4.255,11.749-6.643
									c-3.778,1.273-8.069,2.693-12.682,3.958c-4.61,1.272-9.538,2.392-14.516,3.226c-4.98,0.824-10.005,1.361-14.778,1.651
									c-4.774,0.297-9.294,0.344-13.28,0.364c3.787,1.227,8.339,2.143,13.267,2.478C145.786,350.099,151.079,349.861,156.273,349z
									"/>
								<path style="fill:#7BC1BA;" d="M116.122,398.445c22.568,1.489,59.123,1.032,81.647-1.02
									C175.2,395.935,138.646,396.392,116.122,398.445z"/>
								<path style="fill:#7BC1BA;" d="M191.035,384.697c-15.324-0.555-39.685,2.455-54.413,6.723
									C151.946,391.975,176.308,388.965,191.035,384.697z"/>
								<polygon style="fill:#E4E4E0;" points="110.682,327.493 112.702,352.514 122.036,304.014 								"/>
								<path style="fill:#FFFFFF;" d="M229.588,322.315l-14.982-31.325c-1.025-2.144-2.288-4.133-3.735-5.956
									c-1.097-1.382-2.306-2.661-3.611-3.831c-4.38-3.929-9.834-6.613-15.803-7.598l-33.664-5.556l-36.647,6.049
									c-9.233,1.524-17.3,7.097-21.992,15.193L79.522,323.16l25.902,15.204l5.257-10.871l2.02,25.021l-2.02-25.021l11.354-23.478
									l-9.334,48.499l-3.711,53.046h95.538l-1.647-53.046l1.37-22.324l2.247,6.614l2.088-1.31l17.233-10.815L229.588,322.315z
									 M149.663,278.975c2.734,1.036,5.783,1.651,8.832,1.641c3.049-0.016,6.093-0.658,8.817-1.717
									c2.733-1.053,5.133-2.525,7.109-4.049c-1.394,2.065-3.569,4.149-6.355,5.662c-2.772,1.522-6.141,2.463-9.561,2.478
									c-3.42,0.015-6.797-0.897-9.582-2.395c-2.799-1.489-4.992-3.554-6.404-5.607
									C144.509,276.495,146.921,277.945,149.663,278.975z M145.976,331.299c6.245-3.098,12.579-6.863,18.538-11.163
									c5.947-4.316,11.505-9.155,16.4-14.118c4.907-4.956,9.137-10.034,12.739-14.642c-1.973,5.493-5.171,11.568-9.587,17.369
									c-4.398,5.808-9.995,11.326-16.295,15.893c-6.309,4.556-13.299,8.147-20.192,10.507c-6.891,2.38-13.662,3.519-19.496,3.675
									C133.588,336.84,139.734,334.41,145.976,331.299z M191.035,384.697c-14.728,4.269-39.089,7.279-54.413,6.723
									C151.35,387.151,175.712,384.141,191.035,384.697z M140.873,346.914c4.773-0.29,9.798-0.828,14.778-1.651
									c4.979-0.834,9.906-1.953,14.516-3.226c4.613-1.266,8.904-2.686,12.682-3.958c-3.185,2.388-7.195,4.729-11.749,6.643
									c-4.549,1.92-9.633,3.41-14.827,4.279c-5.195,0.861-10.487,1.099-15.413,0.756c-4.928-0.335-9.481-1.25-13.267-2.478
									C131.579,347.258,136.099,347.211,140.873,346.914z M116.122,398.445c22.524-2.052,59.079-2.509,81.647-1.02
									C175.244,399.477,138.69,399.934,116.122,398.445z"/>
							</g>
							<polygon style="fill:#402C49;" points="225.822,324.679 208.589,335.494 210.724,340.797 							"/>
							<polygon style="fill:#E4E4E0;" points="204.253,330.19 206.044,301.021 211.435,333.708 206.501,336.804 							"/>
						</g>
						<g>
							<g>
								<path style="fill:#F2C9AD;" d="M148.783,269.887L148.783,269.887c5.37,7.247,16.215,7.247,21.585,0l0,0V243.2h-21.585
									V269.887z"/>
								<path style="fill:#402C49;" d="M170.369,243.2v22.202c-0.594,0.044-1.193,0.075-1.799,0.075
									c-8.261,0-15.533-4.221-19.786-10.621V243.2H170.369z"/>
							</g>
							<path style="fill:#F2C9AD;" d="M167.647,188.09c15.394,0,27.873,12.479,27.873,27.873v16.33
								c0,15.394-12.479,27.873-27.873,27.873s-27.873-12.479-27.873-27.873v-16.33C139.774,200.569,152.253,188.09,167.647,188.09z
								"/>
							<path style="fill:#EBA25D;" d="M132.114,218.511c-0.332-1.052-0.629-2.103-0.846-3.152c-1.145-5.55-1.427-11.368,0-16.853
								c2.382-9.149,9.583-16.738,18.353-20.272c16.797-6.768,37.744,0.236,45.864,16.61c2.454,4.95,0.343,6.738-3.907,10.269
								c-11.004,9.141-26.63,3.853-38.713,4.917l0.141,22.58c0,3.508-2.844,6.352-6.352,6.352c-4.164,0-8.334-0.006-12.494,0.001
								c-0.031-3.255,1.091-6.488,0.868-9.707C134.778,225.653,133.239,222.072,132.114,218.511z"/>
							<g>
								<circle style="fill:#F2C9AD;" cx="139.774" cy="234.66" r="8.54"/>
								<path style="fill:#EBA588;" d="M135.471,234.66c0,2.377,1.927,4.303,4.303,4.303c2.377,0,4.303-1.927,4.303-4.303
									c0-2.376-1.927-4.303-4.303-4.303C137.397,230.357,135.471,232.283,135.471,234.66z"/>
							</g>
							<path style="fill:#34587F;" d="M188.106,222.272c0,1.399,0.777,2.534,1.736,2.534c0.959,0,1.736-1.135,1.736-2.534
								c0-1.399-0.777-2.534-1.736-2.534C188.883,219.738,188.106,220.872,188.106,222.272z"/>
							<path style="fill:#34587F;" d="M169.899,222.272c0,1.399,0.777,2.534,1.736,2.534c0.959,0,1.736-1.135,1.736-2.534
								c0-1.399-0.777-2.534-1.736-2.534C170.677,219.738,169.899,220.872,169.899,222.272z"/>
							<path style="fill:#EBA588;" d="M178.487,234.624c2.877-0.063,5.755-0.126,8.632-0.189c-0.26,0.777-0.472,1.607-0.897,2.308
								c-0.425,0.7-1.031,1.319-1.798,1.607c-1.161,0.436-2.503,0.034-3.49-0.715C179.947,236.885,179.172,235.657,178.487,234.624z
								"/>
							<path style="fill:#FFFFFF;" d="M170.34,241.441c5.536,1.445,11.319,1.935,17.018,1.443c-1.175,3.723-5.091,6.842-8.986,6.584
								C174.477,249.21,171.014,245.286,170.34,241.441z"/>
							<g>
								<path style="fill:#EBA25D;" d="M171.33,213.084c-2.403,0.251-4.412,1.624-5.579,3.54l11.77-1.23
									C175.983,213.76,173.733,212.832,171.33,213.084z"/>
							</g>
							<g>
								<path style="fill:#EBA25D;" d="M190.207,213.091c1.622,0.245,2.89,1.607,3.543,3.51l-7.941-1.201
									C186.981,213.773,188.585,212.846,190.207,213.091z"/>
							</g>
							<g>
								<path style="fill:#EBA588;" d="M175.323,226.001c-0.944-0.545-2.285-0.902-3.647-0.969
									c-1.362-0.072-2.732,0.146-3.727,0.592C170.041,226.223,173.18,226.383,175.323,226.001z"/>
							</g>
							<g>
								<path style="fill:#EBA588;" d="M187.527,226.001c0.649-0.545,1.572-0.902,2.509-0.969c0.937-0.072,1.88,0.146,2.564,0.592
									C191.16,226.223,189.001,226.383,187.527,226.001z"/>
							</g>
							<g>
								<path style="fill:#F0BF6C;" d="M144.686,201.893c3.956-0.591,8.666-3.18,12.129-7.026c3.501-3.811,5.633-8.745,5.847-12.739
									c-2.801,2.87-5.804,6.455-8.96,9.908C150.563,195.504,147.278,198.833,144.686,201.893z"/>
							</g>
							<g>
								<path style="fill:#F0BF6C;" d="M168.647,200.421c1.388-2.186,2.207-5.503,2.033-8.812c-0.149-3.311-1.286-6.532-2.88-8.573
									c-0.143,2.592,0.017,5.65,0.159,8.706C168.115,194.797,168.253,197.856,168.647,200.421z"/>
							</g>
							<g>
								<path style="fill:#F0BF6C;" d="M157.098,181.9c-3.407-0.433-7.93,0.7-11.611,3.232c-3.711,2.489-6.431,6.277-7.284,9.603
									c2.843-1.941,6.004-4.379,9.314-6.614C150.814,185.867,154.245,183.828,157.098,181.9z"/>
							</g>
							<g>
								<path style="fill:#F0BF6C;" d="M183.771,197.898c0.643-2.321,0.214-5.618-1.358-8.36c-1.533-2.764-4.133-4.837-6.451-5.488
									c1.312,2.026,2.888,4.31,4.245,6.733C181.577,193.196,182.716,195.726,183.771,197.898z"/>
							</g>
						</g>
					</g>
				</g>
			</g>
		</g>
		<g>
			<path style="fill:#402C49;" d="M379.424,202.559H309.87c-3.866,0-7-3.134-7-7v-124c0-3.866,3.134-7,7-7h69.554
				c3.866,0,7,3.134,7,7v124C386.424,199.425,383.29,202.559,379.424,202.559z"/>
			<g>
				<path style="fill:#E47790;" d="M309.87,198.559c-1.654,0-3-1.346-3-3v-124c0-1.654,1.346-3,3-3h69.554c1.654,0,3,1.346,3,3v124
					c0,1.654-1.346,3-3,3H309.87z"/>
				<g>
					<path style="fill:#EBA7AC;" d="M380.068,126.694c0.01-3.445-0.588-7.069-2.744-9.757c-4.813-6.003-15.395-5.231-19.334-11.84
						c-3.225-5.412,0.02-12.342-0.755-18.594c-0.616-4.974-4.043-9.503-8.661-11.449c-4.619-1.946-10.253-1.234-14.243,1.799
						c-8.389,6.377-8.151,20.346-16.953,26.139c-3.236,2.13-7.261,2.8-10.508,4.907v87.66c0,1.654,1.346,3,3,3h69.554
						c1.654,0,3-1.346,3-3v-50.588c-1.737-2.193-2.525-5.117-2.697-7.952C379.518,133.579,380.058,130.139,380.068,126.694z"/>
					<path style="fill:#EBA7AC;" d="M367.392,86.872c-4.373,0.706-5.793,7.373-4.977,10.946c0.775,3.389,3.977,6.311,7.438,5.991
						c1.872-0.173,3.605-1.249,4.74-2.748c1.135-1.499,1.695-3.387,1.752-5.266C376.492,90.939,372.651,86.024,367.392,86.872z"/>
				</g>
				<g>
					<defs>
						<path id="SVGID_00000013172007786463825690000016420086348418499974_" d="M379.424,68.559H309.87c-1.654,0-3,1.346-3,3V33.447
							h-35.885v88.115l35.885,28.65v45.347c0,1.654,1.346,3,3,3h69.554c1.654,0,3-1.346,3-3v-20.516v-33.825V71.559
							C382.424,69.905,381.078,68.559,379.424,68.559z"/>
					</defs>
					<clipPath id="SVGID_00000039117923314145074540000009248524834636025018_">
						<use xlink:href="#SVGID_00000013172007786463825690000016420086348418499974_"  style="overflow:visible;"/>
					</clipPath>
					<g style="clip-path:url(#SVGID_00000039117923314145074540000009248524834636025018_);">
						<polygon style="fill:#F0BF6C;" points="354.527,133.658 332.602,132.932 329.567,135.831 339.57,143.126 345.571,143.23 
							357.988,139.143 						"/>
						<g>
							<path style="fill:#6CA8BC;" d="M322.794,227.93c15.301,3.352,31.546,2.272,46.269-3.076l-11.075-85.712l-8.01-0.622
								l-0.082,0.129c-3.619,5.681-11.821,5.937-15.788,0.493l0,0l-8.68,0.466L322.794,227.93z"/>
							<g>
								<g>
									<path style="fill:#5195A8;" d="M323.692,224.133c5.428-0.026,12.357,0.012,19.265-0.469
										c6.911-0.447,13.772-1.411,19.155-2.111c-4.886,2.352-11.861,4.229-18.982,4.687
										C336.012,226.738,328.849,225.811,323.692,224.133z"/>
								</g>
								<g>
									<path style="fill:#5195A8;" d="M327.603,201.883c3.738,2.97,8.618,6.583,13.931,9.489
										c5.292,2.944,10.951,5.145,15.457,6.724c-2.385-0.059-5.14-0.446-7.993-1.238c-2.853-0.786-5.797-1.976-8.561-3.498
										c-2.762-1.526-5.338-3.383-7.524-5.376C330.722,205.994,328.924,203.869,327.603,201.883z"/>
								</g>
								<g>
									<path style="fill:#5195A8;" d="M326.197,182.636c2.443,3.904,5.382,9.019,8.493,14.032
										c3.093,5.023,6.355,9.939,8.755,13.87c-3.508-2.978-7.46-7.588-10.618-12.718
										C329.649,192.702,327.292,187.106,326.197,182.636z"/>
								</g>
								<g>
									<path style="fill:#5195A8;" d="M324.664,176.458c2.442,0.233,5.151-0.117,7.919-0.934c2.769-0.803,5.637-2.023,8.526-3.229
										c5.765-2.415,11.389-5.154,15.83-7.199c-3.574,3.334-9.008,6.865-14.925,9.342c-2.945,1.229-6.002,2.32-9.058,2.791
										C329.92,177.719,326.907,177.454,324.664,176.458z"/>
								</g>
								<g>
									<path style="fill:#5195A8;" d="M322.091,170.179c3.05-0.032,6.932-0.132,10.773-0.661
										c3.844-0.506,7.615-1.436,10.564-2.212c-2.553,1.662-6.377,3.127-10.371,3.65
										C329.068,171.508,324.993,171.106,322.091,170.179z"/>
								</g>
								<g>
									<path style="fill:#5195A8;" d="M332.525,144.906c3.115,0.686,7.134,1.183,11.138,0.836
										c4.007-0.311,7.892-1.457,10.853-2.641c-1.228,1.015-2.828,1.993-4.677,2.732c-1.846,0.743-3.933,1.245-6.052,1.421
										c-2.118,0.172-4.26,0.017-6.202-0.415C335.641,146.411,333.903,145.707,332.525,144.906z"/>
								</g>
							</g>
						</g>
						<g>
							<path style="fill:#BD6C67;" d="M304.99,120.533l-10.328-6.741l-2.621-42.374l9.529-6.988
								c0.519-0.381,0.843-0.971,0.886-1.613l0.222-3.332c0.072-1.073-0.649-2.037-1.698-2.273l-12.936-2.902l0.329,2.115
								c0.19,1.224-0.731,2.339-1.969,2.383l-9.263,0.331l3.587,10.485l-2.427,45.08c-0.256,4.764,1.95,9.326,5.844,12.082
								l14.334,10.147L304.99,120.533z"/>
							<path style="fill:#A64F5A;" d="M288.043,54.31l0.09,0.583c0.529,3.406,3.276,6.034,6.701,6.413l2.241,0.248l-2.109,0.149
								c-2.997,0.212-5.753,1.719-7.549,4.128l0,0l-0.129-0.382c-0.985-2.916-3.471-5.07-6.497-5.632l-3.653-0.677L288.043,54.31z"
								/>
							<path style="fill:#BD6C67;" d="M276.392,51.555l9.122-0.861c1.089-0.103,2.069,0.66,2.237,1.741l0.62,3.991
								c0.19,1.224-0.731,2.339-1.969,2.383l-9.263,0.331l0,0c-1.059,0.038-1.976-0.732-2.121-1.782l-0.48-3.46
								C274.377,52.731,275.22,51.665,276.392,51.555z"/>
							<path style="fill:#BD6C67;" d="M297.793,56.498l4.736-12.134c0.567-1.453-0.166-3.089-1.627-3.633l0,0
								c-1.446-0.539-3.055,0.197-3.593,1.643l-3.992,10.729l0.425-13.012c0.05-1.542-1.186-2.819-2.729-2.819l0,0
								c-1.463,0-2.665,1.153-2.728,2.614l-0.534,12.549l0.292,1.876L297.793,56.498z"/>
							<polygon style="fill:#422C4F;" points="304.99,120.533 303.103,119.302 292.825,132.932 298.478,136.934 							"/>
						</g>
						<g>
							<g>
								<path style="fill:#BD6C67;" d="M343.832,134.068c1.803-0.64,3.282-1.996,4.394-3.554c0.403-0.564,0.753-1.162,1.084-1.77
									l0.667,9.776l-0.082,0.129c-3.619,5.681-11.821,5.937-15.788,0.493l0,0l-0.567-8.027c0.712,0.623,1.46,1.201,2.269,1.698
									C338.194,134.279,341.194,135.005,343.832,134.068z"/>
								<path style="fill:#422C4F;" d="M348.986,123.983l0.325,4.761c-0.332,0.608-0.681,1.205-1.084,1.77
									c-1.111,1.557-2.591,2.914-4.394,3.554c-2.638,0.936-5.638,0.21-8.023-1.255c-0.809-0.497-1.557-1.075-2.269-1.698
									l-0.387-5.469L348.986,123.983z"/>
							</g>
							<g>
								<g>
									<path style="fill:#BD6C67;" d="M326.507,117.943c0,2.946-2.388,5.334-5.334,5.334s-5.334-2.388-5.334-5.334
										s2.388-5.334,5.334-5.334S326.507,114.997,326.507,117.943z"/>
									<path style="fill:#A64F5A;" d="M323.758,117.943c0,1.427-1.157,2.585-2.585,2.585c-1.428,0-2.585-1.157-2.585-2.585
										c0-1.428,1.157-2.585,2.585-2.585C322.601,115.358,323.758,116.516,323.758,117.943z"/>
								</g>
								<path style="fill:#402C49;" d="M357.227,118.361c1.66-6,2.165-12.318,1.479-18.506c-0.337-3.04-0.971-6.084-2.311-8.834
									c-1.34-2.75-3.436-5.201-6.173-6.567c-2.667-1.331-5.736-1.557-8.715-1.646c-4.488-0.134-9.059,0.003-13.332,1.384
									c-4.273,1.381-8.259,4.153-10.255,8.175c-1.904,3.837-1.818,8.419-0.665,12.543c1.153,4.125,3.29,7.895,5.407,11.618
									C333.68,119.15,346.008,119.911,357.227,118.361z"/>
								<path style="fill:#BD6C67;" d="M345.623,98.74c-7.615,2.433-15.851,2.887-23.689,1.321
									c-0.587,1.886-0.854,3.906-0.732,5.994l0.614,10.527c0.543,9.297,8.52,16.395,17.817,15.852
									c9.117-0.532,16.113-8.214,15.87-17.279C349.921,111.595,345.879,105.313,345.623,98.74z"/>
								<g>
									<path style="fill:#BD6C67;" d="M362.915,117.943c0,2.946-2.388,5.334-5.334,5.334c-2.946,0-5.334-2.388-5.334-5.334
										s2.388-5.334,5.334-5.334C360.527,112.609,362.915,114.997,362.915,117.943z"/>
									<path style="fill:#A64F5A;" d="M360.166,117.943c0,1.427-1.157,2.585-2.585,2.585c-1.428,0-2.585-1.157-2.585-2.585
										c0-1.428,1.157-2.585,2.585-2.585C359.009,115.358,360.166,116.516,360.166,117.943z"/>
								</g>
							</g>
							<g>
								<g>
									<path style="fill:#422C4F;" d="M327.221,107.91c-1.705,0.09-3.172,0.986-4.065,2.296l8.35-0.442
										C330.48,108.556,328.926,107.82,327.221,107.91z"/>
								</g>
								<g>
									<path style="fill:#422C4F;" d="M342.552,106.867c-1.878,0.035-3.525,0.965-4.556,2.371l9.196-0.17
										C346.111,107.7,344.43,106.832,342.552,106.867z"/>
								</g>
								<path style="fill:#422C4F;" d="M328.631,113.15c0,0.718-0.582,1.3-1.3,1.3s-1.3-0.582-1.3-1.3c0-0.718,0.582-1.3,1.3-1.3
									S328.631,112.433,328.631,113.15z"/>
								<circle style="fill:#422C4F;" cx="342.056" cy="113.15" r="1.3"/>
								<path style="fill:#A64F5A;" d="M336.807,118.482c-1.648-0.383-3.357-0.5-5.042-0.346c0.075,0.797,0.522,1.684,1.222,2.073
									c0.7,0.388,1.591,0.407,2.307,0.049C335.951,119.929,336.441,119.121,336.807,118.482z"/>
								<path style="fill:#FFFFFF;" d="M343.319,121.562c-3.973,1.891-8.544,2.5-12.873,1.713c0.57,1.929,2.319,3.746,4.21,4.429
									c1.892,0.683,4.101,0.412,5.772-0.707C342.098,125.876,343.232,123.571,343.319,121.562z"/>
							</g>
						</g>
						<g>
							<path style="fill:#F0BF6C;" d="M357.988,139.143l8.528,0.45c4.753,0.251,9.167,2.535,12.118,6.269l15.088,19.097
								l-16.556,13.935l-5.105-5.795v8.026c0,13.257,1.83,26.451,5.438,39.208l6.151,21.75c-13.797,4.415-28.007,1.463-28.007,1.463
								l-5.072-21.164c-3.311-13.816-4.35-28.078-3.077-42.228l0,0c1.104-12.276,0.469-24.647-1.887-36.745l-0.035-0.18
								L357.988,139.143z"/>
							<path style="fill:#F0BF6C;" d="M329.567,135.831l-24.577-15.298l-7.983,20.105l17.798,11.753l0.276,18.517
								c0.184,12.37-0.278,24.74-1.385,37.062l-2.891,32.182l0.606,0.207c6.123,2.092,12.669,2.637,19.055,1.587l0,0l3.722-46.726
								c0.255-3.202,0.383-6.412,0.383-9.624v-8.01c0-11.667,1.684-23.273,5.001-34.459l0,0L329.567,135.831z"/>
							<polygon style="fill:#F5D896;" points="357.988,139.143 354.527,133.658 345.571,143.23 352.814,151.611 							"/>
							<polygon style="fill:#F5D896;" points="339.57,143.126 332.602,132.932 329.567,135.831 332.74,151.611 							"/>
							<g>
								<path style="fill:#EBA25D;" d="M372.061,173.1l-8.551-13.107l0.353,2.829c0.748,6,3.664,11.52,8.198,15.52l0,0V173.1z"/>
								<g>
									<path style="fill:#EBA25D;" d="M365.835,148.489c-1.064,2.706-1.689,5.771-2.644,8.213c-0.437-1.23-0.731-2.68-0.763-4.266
										c-0.033-1.581,0.211-3.31,0.848-4.945c0.64-1.643,1.693-3.137,2.986-4.193c1.285-1.066,2.81-1.646,4.115-1.677
										C368.439,143.378,366.889,145.783,365.835,148.489z"/>
									<path style="fill:#EBA25D;" d="M316.551,150.425c0.071-0.163,0.153-0.329,0.23-0.494c-0.085,0.13-0.17,0.262-0.257,0.384
										c-0.341-3.65,1.115-9.023,3.252-12.001c0.254,2.722-0.491,6.402-1.773,9.333c0.869-1.46,1.905-2.954,3.007-4.398
										c1.822-2.376,3.819-4.626,5.756-6.184c-0.437,2.444-1.791,5.304-3.682,7.77
										C321.199,147.306,318.795,149.362,316.551,150.425z"/>
									<path style="fill:#EBA25D;" d="M380.345,237.51c-4.593-0.508-10.49-2.564-15.576-5.978
										c-5.115-3.37-9.291-8.014-11.535-12.054c3.406,3.132,7.853,6.986,12.753,10.222
										C370.865,232.968,376.14,235.58,380.345,237.51z"/>
									<path style="fill:#EBA25D;" d="M369.795,227.282c-3.843-3.413-8.113-8.702-11.409-14.577
										c-3.323-5.86-5.641-12.25-6.575-17.304c2.473,4.51,5.46,10.376,8.705,16.103
										C363.738,217.242,367.214,222.832,369.795,227.282z"/>
									<path style="fill:#EBA25D;" d="M324.409,217.403c2.98-4.435,5.278-9.279,6.919-13.165c-0.184,2.099-0.69,4.508-1.573,6.973
										c-0.878,2.465-2.131,4.981-3.677,7.305c-1.55,2.321-3.391,4.446-5.328,6.204c-1.936,1.763-3.965,3.156-5.832,4.134
										C317.873,225.844,321.461,221.86,324.409,217.403z"/>
								</g>
							</g>
						</g>
						<g>
							<g>
								<path style="fill:#EBA58E;" d="M377.892,250.368l-0.903-6.511c-0.34-2.453-0.271-4.946,0.205-7.377l9.353-47.79
									l-8.154-10.829l12.842-10.808l7.896,13.135c2.816,4.684,3.523,10.339,1.949,15.572l-13.292,44.184l2.345,6.279v0
									l-10.541,8.514C378.702,253.439,378.111,251.949,377.892,250.368z"/>
								<path style="fill:#E78882;" d="M390.134,246.222L390.134,246.222c3.143,4.757,3.413,10.857,0.703,15.873l-1.117,2.067
									l-8.51-7.58c-0.618-0.55-1.156-1.174-1.617-1.847L390.134,246.222z"/>
							</g>
							<polygon style="fill:#422C4F;" points="391.236,167.052 378.394,177.861 382.288,183.033 392.555,169.247 							"/>
						</g>
					</g>
				</g>
			</g>
			<path style="fill:#402C49;" d="M355.94,73.968h-24.47c-1.577,0-3.061-0.744-4.005-2.007l-3.374-4.514h39.228l-3.374,4.514
				C359.001,73.224,357.516,73.968,355.94,73.968z"/>
		</g>
		<g>
			<defs>
				
					<rect id="SVGID_00000111892861050422324220000016578799860764831898_" x="461.059" y="81.384" transform="matrix(-1 -1.224647e-16 1.224647e-16 -1 1097.7632 282.0945)" width="175.646" height="119.326"/>
			</defs>
			<clipPath id="SVGID_00000142888905935419497210000009937554753293877431_">
				<use xlink:href="#SVGID_00000111892861050422324220000016578799860764831898_"  style="overflow:visible;"/>
			</clipPath>
			<g style="clip-path:url(#SVGID_00000142888905935419497210000009937554753293877431_);">
				<path style="fill:#FBEED1;" d="M451.92,133.676c2.195-4.397,4.43-8.855,7.733-12.494c3.303-3.639,7.869-6.417,12.783-6.472
					c4.914-0.055,9.993,3.181,11.024,7.986c0.998,4.651-1.766,9.335-1.565,14.087c0.35,8.251,10.031,13.676,18.147,12.148
					c8.116-1.527,14.446-7.923,19.086-14.754c4.641-6.831,8.199-14.45,13.737-20.576c7.827-8.656,19.474-13.727,31.142-13.557
					c11.669,0.169,23.164,5.574,30.736,14.454c5.057,5.93,9.149,13.802,16.713,15.68c6.549,1.626,13.157-1.981,19.856-2.787
					c10.022-1.205,20.499,4.654,24.72,13.823v75.232H444.318L451.92,133.676z"/>
				<path style="fill:#FBEED1;" d="M489.602,105.193c-0.034,2.74,1.747,5.556,4.407,6.213c2.163,0.534,4.385-0.348,6.554-0.857
					c2.492-0.585,5.073-0.678,7.592-1.137c2.518-0.459,5.073-1.351,6.836-3.206c2.946-3.1,2.791-8.421,0.11-11.752
					c-2.682-3.332-7.368-4.679-11.578-3.928c-3.67,0.654-7.503,2.83-9.841,5.765C491.847,98.593,489.638,102.243,489.602,105.193z"
					/>
			</g>
			<g style="clip-path:url(#SVGID_00000142888905935419497210000009937554753293877431_);">
				<polygon style="fill:#E36B85;" points="553.643,227.999 557.842,263.306 580.586,296.039 602.515,285.658 569.921,221.243 				
					"/>
				<g>
					<path style="fill:#E68799;" d="M541.306,179.584L541.306,179.584c-4.738,1.602-8.489,5.275-10.188,9.98l-13.881,38.435
						l7.005,41.461l0,0c7.532-4.619,12.911-12.051,14.944-20.65l6.517-27.567L541.306,179.584z"/>
					<g>
						<g>
							<path style="fill:#F0BF9C;" d="M511.782,193.118l17.058-21.115l0,0c-2.66-2.54-6.793-2.708-9.65-0.391l-5.542,4.494
								l0.34-9.665l-26.373,3.27l7.64,25.26L511.782,193.118z"/>
							<path style="fill:#EBA588;" d="M513.648,176.105L513.648,176.105c-5.498,2.124-9.717,6.653-11.445,12.288l-0.423,1.379
								l-0.106-1.29C501.106,181.586,506.737,175.765,513.648,176.105L513.648,176.105z"/>
							<path style="fill:#EBA588;" d="M513.988,166.44l0.965-19.15c0.068-1.352-0.929-2.523-2.275-2.67l0,0
								c-1.404-0.154-2.666,0.859-2.82,2.263l-2.232,20.346L513.988,166.44z"/>
							<path style="fill:#EBA588;" d="M507.626,167.228l-2.846-21.917c-0.188-1.452-1.485-2.499-2.945-2.377l0,0
								c-1.44,0.121-2.539,1.34-2.51,2.785l0.451,22.483L507.626,167.228z"/>
							<path style="fill:#EBA588;" d="M499.777,168.202l-5.256-21.006c-0.317-1.267-1.567-2.067-2.851-1.824l0,0
								c-1.292,0.245-2.164,1.46-1.983,2.763l2.92,20.956L499.777,168.202z"/>
							<path style="fill:#EBA588;" d="M487.616,169.71l-4.472-14.457c-0.322-1.042,0.32-2.135,1.387-2.361l0,0
								c0.884-0.187,1.774,0.29,2.107,1.13l5.97,15.068L487.616,169.71z"/>
						</g>
						<g>
							<polygon style="fill:#E68799;" points="515.537,189.993 492.594,191.856 494.47,208.057 519.306,204.743 							"/>
							<path style="fill:#E68799;" d="M519.306,204.743l-24.837,3.314l4.769,41.186c1.083,9.357,10.283,15.522,19.35,12.967v0
								c7.992-2.253,12.729-10.469,10.673-18.514L519.306,204.743z"/>
						</g>
					</g>
				</g>
				<g>
					<g>
						<g>
							<path style="fill:#F2C9AD;" d="M559.614,196.943c6.91,4.487,15.613,6.121,23.68,4.448c8.226-1.706,15.499-6.653,21.331-12.7
								c1.653-1.714,3.195-3.523,4.67-5.388c-1.347-3.81-2.621-7.646-3.781-11.52l-16.692-9.609l-34.553,5.852l-6.566,14.658
								C550.167,188.464,554.341,193.52,559.614,196.943z"/>
							<path style="fill:#FFFFFF;" d="M609.295,183.304c-1.475,1.865-3.017,3.674-4.67,5.388
								c-5.832,6.047-13.105,10.993-21.331,12.7c-8.067,1.673-16.77,0.039-23.68-4.448c-5.273-3.424-9.448-8.479-11.912-14.259
								l-3.935,8.784l5.983,36.542c1.754,10.714,10.398,18.967,21.182,20.225l2.813,0.328c11.142,8.334,20.39,21.84,23.213,35.465
								c22.026,7.703,47.904,1.818,64.305-14.78C638.221,244.578,620.542,215.114,609.295,183.304z"/>
							<g>
								<g>
									<path style="fill:#E4E4E0;" d="M602.101,204.274c-3.489,1.377-7.529,2.643-11.904,3.363
										c-4.368,0.729-9.057,0.914-13.665,0.381c-4.607-0.539-9.128-1.794-13.212-3.506c-4.093-1.704-7.735-3.863-10.815-6.004
										c2.249,2.994,5.527,6.031,9.62,8.398c4.077,2.377,8.952,4.07,13.995,4.656c5.043,0.586,10.177,0.058,14.69-1.321
										C595.337,208.876,599.224,206.672,602.101,204.274z"/>
								</g>
								<g>
									<path style="fill:#E4E4E0;" d="M605.358,209.858c-5.175,0.764-11.762,3.39-17.309,7.567
										c-5.585,4.126-9.979,9.691-12.187,14.434c3.594-3.811,8.339-8.485,13.676-12.437
										C594.848,215.433,600.681,212.217,605.358,209.858z"/>
								</g>
								<g>
									<path style="fill:#E4E4E0;" d="M586.057,218.283c-3.812-0.762-8.676-1.721-13.436-3.096
										c-4.767-1.349-9.403-3.105-13.042-4.473c3.022,2.439,7.609,4.859,12.534,6.25
										C577.029,218.387,582.203,218.757,586.057,218.283z"/>
								</g>
								<g>
									<path style="fill:#E4E4E0;" d="M614.55,248.94c-11.092-2.128-29.164-2.678-40.365-1.228
										C585.277,249.841,603.349,250.391,614.55,248.94z"/>
								</g>
								<g>
									<path style="fill:#E4E4E0;" d="M629.827,259.461c-5.988-0.499-13.632-1.077-21.203-2.255
										c-7.577-1.14-15.044-2.874-20.907-4.189c5.148,3.085,12.66,5.841,20.475,7.012
										C616,261.249,623.992,260.866,629.827,259.461z"/>
								</g>
							</g>
						</g>
						<path style="fill:#422C4F;" d="M557.004,164.975c0.749,2.922,1.508,5.869,2.855,8.567c1.348,2.698,3.35,5.164,6.038,6.532
							c4.988,2.538,11.32,0.697,15.513-3.009c4.193-3.706,6.69-8.923,8.943-14.046C579.415,163.899,567.942,164.094,557.004,164.975
							z"/>
					</g>
					<g>
						<path style="fill:#E68799;" d="M581.643,193.655l7.373,9.425l-2.206,6.96c7.026,32.115,20.924,63.324,41.005,89.353
							c22.742-1.956,45.337-13.093,61.039-29.661c-37.037-28.732-46.314-84.942-58.564-92.526
							c-12.251-7.585-41.467-15.03-41.467-15.03l1.705,18.279L581.643,193.655z"/>
						<g>
							<g>
								<path style="fill:#E36B85;" d="M631.305,291.244c3.764,0.184,8.165-0.169,12.734-1.24c4.569-1.06,9.294-2.836,13.696-5.221
									c4.398-2.393,8.46-5.389,11.838-8.643c3.387-3.249,6.079-6.749,7.975-10.005c-2.825,2.503-6.077,5.274-9.711,7.95
									c-3.629,2.682-7.633,5.27-11.813,7.546c-4.185,2.266-8.536,4.215-12.762,5.798
									C639.037,289.019,634.943,290.238,631.305,291.244z"/>
							</g>
							<g>
								<path style="fill:#E36B85;" d="M662.878,245.688c-1.672,5.828-4.092,13.147-7.529,20.021
									c-3.388,6.898-7.746,13.257-11.371,18.117c4.965-3.467,10.417-9.614,13.954-16.837
									C661.537,259.8,663.126,251.739,662.878,245.688z"/>
							</g>
							<g>
								<path style="fill:#E36B85;" d="M648.833,268.211c2.329-6.279,3.882-15.044,3.754-23.846
									c-0.08-8.802-1.841-17.528-4.318-23.75c0.4,6.692,1.049,15.229,1.131,23.788
									C649.521,252.961,649.075,261.511,648.833,268.211z"/>
							</g>
						</g>
					</g>
					<path style="fill:#EBA7AC;" d="M588.766,162.137c-1.119,10.738-3.515,21.342-7.123,31.518
						c5.301,1.949,10.385,4.855,14.745,8.446c-0.167-8.842-0.344-17.67-0.516-26.506c-0.104-5.333-2.669-10.379-7.051-13.42
						L588.766,162.137z"/>
					<g>
						<path style="fill:#E68799;" d="M580.586,296.039c-18.76-31.665-30.024-69.205-32.703-105.913l-10.078-6.125
							c-9.309,48.714,20.007,116.057,32.116,128.803L580.586,296.039z"/>
						<g>
							<path style="fill:#E36B85;" d="M568.456,298.907c-2.929-5.425-6.159-11.727-9.209-18.613
								c-3.057-6.881-5.934-14.341-8.359-21.949c-2.413-7.611-4.373-15.363-5.851-22.746c-1.487-7.383-2.489-14.394-3.23-20.514
								c-0.223,6.157,0.061,13.311,1.088,20.873c1.017,7.561,2.777,15.52,5.233,23.264c2.467,7.74,5.627,15.255,9.162,22.015
								C560.818,288.004,564.718,294.009,568.456,298.907z"/>
						</g>
						<g>
							<path style="fill:#E36B85;" d="M573.131,296.897c-2.683-6.759-6.508-15.263-10.138-23.853
								c-3.657-8.578-7.117-17.238-10.115-23.862c0.771,7.226,3.207,16.476,6.933,25.213
								C563.507,283.145,568.469,291.323,573.131,296.897z"/>
						</g>
					</g>
					<g>
						<path style="fill:#EBA7AC;" d="M557.842,165.496c-4.597,7.613-7.973,15.961-9.96,24.629
							c-3.407-1.951-6.671-4.174-10.078-6.125c5.241-6.599,10.366-13.117,15.607-19.716
							C554.633,164.709,556.621,165.071,557.842,165.496z"/>
						<polygon style="fill:#E36B85;" points="537.805,184.001 538.852,198.937 545.703,188.833 						"/>
					</g>
				</g>
				<g>
					<g>
						<g>
							<path style="fill:#422C4F;" d="M615.163,125.234c0.296-10.079-4.96-20.147-13.4-25.666
								c-5.163-3.376-11.409-4.968-17.567-4.715c-1.286,1.618-2.375,3.391-3.212,5.285c5.011,12.223,8.493,26.793,14.679,38.466
								c3.215,6.067,6.84,12.324,12.727,15.858c1.846,1.109,3.873,1.814,5.969,2.182c-0.841-1.584-1.466-3.283-1.84-5.037
								C610.668,142.914,614.902,134.118,615.163,125.234z"/>
							<path style="fill:#8C404C;" d="M628.435,115.146c1.584-7.97-1.014-16.653-6.715-22.444
								c-5.701-5.791-14.342-8.524-22.336-7.064c-5.957,1.088-11.426,4.482-15.188,9.216c6.158-0.253,12.404,1.339,17.567,4.715
								c8.44,5.518,13.696,15.587,13.4,25.666c-0.261,8.884-4.494,17.679-2.645,26.373c0.373,1.755,0.999,3.453,1.84,5.037
								c3.733,0.656,7.69,0.212,11.278-1.144c-4.491-2.123-6.832-7.392-6.812-12.359c0.019-4.967,1.979-9.708,4.12-14.189
								C625.084,124.47,627.467,120.018,628.435,115.146z"/>
						</g>
						<g>
							<path style="fill:#8C404C;" d="M545.189,153.279c-4.972-8.774-6.879-19.322-4.894-29.21
								c1.985-9.888,7.933-18.996,16.411-24.458c8.478-5.462,19.413-7.092,29.002-3.968c6.871,2.239,12.927,6.821,17.084,12.732
								c4.157,5.911,6.415,13.108,6.544,20.333c0.113,6.34-1.412,12.743-4.646,18.197c-3.234,5.454-8.205,9.916-14.096,12.261
								C575.565,159.059,559.893,156.389,545.189,153.279z"/>
							<path style="fill:#F2C9AD;" d="M556.843,124.674c-4.194,3.521-8.096,7.385-11.692,11.515l-1.24,11.532
								c-1.463,13.605,8.38,25.82,21.985,27.282h0c13.605,1.463,25.82-8.381,27.282-21.986l1.482-13.787
								C580.954,139.749,566.936,133.958,556.843,124.674z"/>
							<g>
								<circle style="fill:#F2C9AD;" cx="597.621" cy="157.747" r="7.837"/>
								<path style="fill:#EBA58E;" d="M601.602,157.747c0,2.199-1.782,3.981-3.981,3.981s-3.981-1.782-3.981-3.981
									c0-2.199,1.782-3.981,3.981-3.981S601.602,155.549,601.602,157.747z"/>
							</g>
							<g>
								<path style="fill:#9B4B5A;" d="M593.816,125.567c-3.833-1.675-8.36-3.383-12.757-5.41
									c-4.409-2.002-8.662-4.309-12.435-6.115c1.638,3.837,5.647,7.873,10.608,10.106
									C584.167,126.442,589.842,126.837,593.816,125.567z"/>
							</g>
							<g>
								<path style="fill:#9B4B5A;" d="M594.624,116.519c-2.862-1.581-6.626-2.858-10.465-3.799
									c-3.841-0.933-7.771-1.533-11.039-1.448c2.519,2.079,6.269,3.824,10.225,4.784
									C587.298,117.025,591.431,117.204,594.624,116.519z"/>
							</g>
						</g>
					</g>
					<g>
						<g>
							<path style="fill:#8C404C;" d="M555.779,133.378c-2.632-0.507-5.206,0.304-7.061,1.963l12.888,2.481
								C560.5,135.594,558.41,133.885,555.779,133.378z"/>
						</g>
						<g>
							<path style="fill:#422C4F;" d="M558.18,144.327c0.073-0.77-0.171-1.718-0.77-2.535c-0.589-0.818-1.531-1.5-2.625-1.77
								c-1.093-0.272-2.245-0.109-3.148,0.339c-0.911,0.442-1.57,1.167-1.865,1.882c1.377-0.693,3.089-1.018,4.621-0.639
								C555.923,141.984,557.286,143.071,558.18,144.327z"/>
						</g>
						<g>
							<path style="fill:#8C404C;" d="M576.1,134.307c2.679-0.058,5.081,1.173,6.631,3.119l-13.122,0.285
								C571.075,135.7,573.421,134.365,576.1,134.307z"/>
						</g>
						<g>
							<path style="fill:#422C4F;" d="M571.331,144.884c0.061-0.819,0.485-1.769,1.258-2.518c0.763-0.752,1.872-1.298,3.065-1.387
								c1.194-0.09,2.371,0.286,3.237,0.916c0.875,0.626,1.436,1.502,1.618,2.303c-1.318-0.972-3.055-1.617-4.727-1.493
								C574.112,142.832,572.491,143.727,571.331,144.884z"/>
						</g>
						<path style="fill:#EBA58E;" d="M567.155,152.759c-2.337-0.387-4.675-0.774-7.012-1.161c0.284,1.479,1.604,2.647,3.078,2.95
							C564.697,154.85,566.312,154.006,567.155,152.759z"/>
						<path style="fill:#FFFFFF;" d="M574.122,157.164c-6.425,1.256-13.078,1.333-19.53,0.225c0.751,2.234,1.558,4.831,3.12,6.595
							c1.562,1.765,3.719,3.085,6.067,3.287c2.567,0.221,5.138-0.926,6.972-2.736C572.584,162.727,573.474,159.658,574.122,157.164z
							"/>
					</g>
				</g>
			</g>
		</g>
		<g>
			<path style="fill:#FFFFFF;" d="M308.46,244.475c3.746-5.597,5.933-12.325,5.933-19.566c0-19.455-15.772-35.227-35.227-35.227
				c-19.455,0-35.227,15.772-35.227,35.227s15.772,35.227,35.227,35.227c7.488,0,14.425-2.343,20.133-6.327l14.642,5.433
				L308.46,244.475z"/>
			<path style="fill:#87D38C;" d="M297.51,236.291c-1.803-1.98-4.073-3.337-6.349-4.69c-1.201-0.714-2.266-0.681-3.393,0.144
				c-1.145,0.838-2.364,1.573-3.526,2.388c-1.142,0.8-2.364,0.891-3.634,0.457c-0.651-0.223-1.294-0.509-1.885-0.861
				c-3.531-2.105-6.351-4.939-8.447-8.471c-0.423-0.713-0.718-1.522-0.955-2.321c-0.309-1.044-0.137-2.056,0.486-2.979
				c0.887-1.314,1.745-2.647,2.641-3.954c0.634-0.925,0.704-1.841,0.153-2.831c-1.134-2.04-2.361-4.016-3.93-5.756
				c-0.834-0.924-1.752-1.747-2.889-2.299c-1.303-0.632-2.529-0.496-3.583,0.47c-0.6,0.55-1.163,1.192-1.565,1.894
				c-1.572,2.742-1.915,5.732-1.317,8.778c1.151,5.863,3.73,11.085,7.473,15.725c4.353,5.397,9.891,9.133,16.389,11.469
				c2.271,0.817,4.584,1.505,7.038,1.496c0.007,0.046,0.014,0.092,0.022,0.138c1.298-0.217,2.616-0.353,3.888-0.671
				c1.656-0.414,3.148-1.19,4.289-2.521c0.977-1.14,1.166-2.397,0.436-3.713C298.477,237.509,298.027,236.859,297.51,236.291z"/>
		</g>
		<g>
			<path style="fill:#FFFFFF;" d="M525.209,211.727c-5.597-3.746-12.325-5.933-19.566-5.933c-19.455,0-35.227,15.772-35.227,35.227
				c0,19.455,15.772,35.227,35.227,35.227s35.227-15.772,35.227-35.227c0-7.488-2.343-14.425-6.327-20.132l5.433-14.642
				L525.209,211.727z"/>
			<g>
				<circle style="fill:#56438C;" cx="493.025" cy="242.78" r="2.949"/>
				<circle style="fill:#56438C;" cx="506.279" cy="242.78" r="2.949"/>
				<circle style="fill:#56438C;" cx="519.534" cy="242.78" r="2.949"/>
			</g>
		</g>
		<g>
			<g>
				<path style="fill:#FFFFFF;" d="M387.6,96.741c5.597,3.746,12.325,5.933,19.566,5.933c19.455,0,35.227-15.772,35.227-35.227
					S426.622,32.22,407.166,32.22c-19.455,0-35.227,15.772-35.227,35.227c0,7.488,2.343,14.425,6.327,20.132l-5.433,14.642
					L387.6,96.741z"/>
				<path style="fill:#D1F4F5;" d="M407.166,103.674c-7.027,0-13.824-2.01-19.692-5.819l-14.293,5.304
					c-0.366,0.134-0.779,0.045-1.055-0.23c-0.276-0.276-0.366-0.688-0.23-1.055l5.252-14.155
					c-4.063-6.003-6.208-13.001-6.208-20.271c0-19.976,16.251-36.227,36.227-36.227c19.976,0,36.228,16.251,36.228,36.227
					S427.142,103.674,407.166,103.674z M387.601,95.741c0.195,0,0.39,0.057,0.557,0.169c5.634,3.771,12.207,5.764,19.009,5.764
					c18.873,0,34.228-15.354,34.228-34.227c0-18.873-15.354-34.227-34.228-34.227c-18.873,0-34.227,15.354-34.227,34.227
					c0,7.035,2.125,13.799,6.146,19.561c0.188,0.269,0.231,0.613,0.117,0.92l-4.674,12.598l12.724-4.722
					C387.365,95.762,387.483,95.741,387.601,95.741z"/>
			</g>
			<g>
				<g>
					<circle style="fill:#F0BF6C;" cx="406.818" cy="67.78" r="20.75"/>
				</g>
				<g>
					<g>
						<path style="fill:#402C49;" d="M399.527,57.614c-0.96,0-1.76,1.714-1.954,3.997l1.454,0.878l-1.482,0.629
							c0.09,2.586,0.938,4.621,1.982,4.621c1.105,0,2-2.267,2-5.063C401.527,59.88,400.631,57.614,399.527,57.614z"/>
					</g>
					<g>
						<path style="fill:#402C49;" d="M412.61,57.614c-0.96,0-1.76,1.714-1.954,3.997l1.454,0.878l-1.482,0.629
							c0.09,2.586,0.938,4.621,1.982,4.621c1.105,0,2-2.267,2-5.063C414.61,59.88,413.715,57.614,412.61,57.614z"/>
					</g>
				</g>
				<g>
					<path style="fill:#852D70;" d="M417.439,70.455c-6.867,2.825-14.734,3.144-21.807,0.885c0.153,3.524,2.812,6.834,5.896,8.544
						s7.057,1.695,10.128-0.042C414.727,78.107,417.316,73.98,417.439,70.455z"/>
				</g>
			</g>
		</g>
	</g>
</g>
</svg>
